<svg xmlns="http://www.w3.org/2000/svg" viewBox="0 0 328.02 313.98"><defs><style>.cls-1{font-size:50px;font-family:UnicaOne-Regular, Unica One;}</style></defs><g id="Capa_3" data-name="Capa 3"><circle cx="191.9" cy="147.5" r="30.5"/><path d="M148,225.88,151,236a83.2,83.2,0,0,0,16.67-2.09l-11.18-36.71Z" transform="translate(25.4 6)"/><path d="M140.92,235.54l2.87-9.65-12.71-41.72-7.31,24.54,7.71,25.3A81.05,81.05,0,0,0,140.92,235.54Z" transform="translate(25.4 6)"/><path d="M145,235.86c.62,0,1.23.08,1.86.1l-1-3.14Z" transform="translate(25.4 6)"/><path d="M89.1,210.43a82.81,82.81,0,0,0,24.7,17.74l5.79-19.45L104.44,159Z" transform="translate(25.4 6)"/><path d="M117.55,229.58a82.22,82.22,0,0,0,9.39,3.27l-5.24-17.2Z" transform="translate(25.4 6)"/><path d="M149,68A85,85,0,0,0,85.29,209.23L104.4,145.1l17.26,56.68L131,170.3,145.86,219l10.63-35.65,15.67,51.48A85,85,0,0,0,149,68ZM79.5,171a6.5,6.5,0,1,1,6.5-6.5A6.5,6.5,0,0,1,79.5,171Zm7-43a6.5,6.5,0,1,1,6.5-6.5A6.5,6.5,0,0,1,86.5,128Zm29-29a6.5,6.5,0,1,1,6.5-6.5A6.5,6.5,0,0,1,115.5,99Zm44-21a6.5,6.5,0,1,1-6.5,6.5A6.5,6.5,0,0,1,159.5,78Zm28,139a6.5,6.5,0,1,1,6.5-6.5A6.5,6.5,0,0,1,187.5,217Zm-21-41A34.5,34.5,0,1,1,201,141.5,34.54,34.54,0,0,1,166.5,176Zm32-66a6.5,6.5,0,1,1,6.5-6.5A6.5,6.5,0,0,1,198.5,110Zm15,78a6.5,6.5,0,1,1,6.5-6.5A6.5,6.5,0,0,1,213.5,188Zm4-40a6.5,6.5,0,1,1,6.5-6.5A6.5,6.5,0,0,1,217.5,148Z" transform="translate(25.4 6)"/></g><g id="Capa_4" data-name="Capa 4"><text class="cls-1" transform="translate(212.1 56.03) rotate(25.94)">V</text><text class="cls-1" transform="matrix(0.82, 0.57, -0.57, 0.82, 232.35, 66.23)">i</text><text class="cls-1" transform="matrix(0.71, 0.7, -0.7, 0.71, 242.7, 72.79)">e</text><text class="cls-1" transform="translate(259.98 88.17) rotate(60.05)">w</text><text class="cls-1" transform="translate(189.01 297.88) rotate(-10.56)">C</text><text class="cls-1" transform="translate(217.49 292.12) rotate(-22.8)">o</text><text class="cls-1" transform="matrix(0.78, -0.62, 0.62, 0.78, 246.5, 280)">m</text><text class="cls-1" transform="matrix(0.6, -0.8, 0.8, 0.6, 279.89, 251.41)">p</text><text class="cls-1" transform="translate(296.01 229.31) rotate(-64.86)">a</text><text class="cls-1" transform="translate(308.21 202.27) rotate(-77.4)">n</text><text class="cls-1" transform="matrix(0.01, -1, 1, 0.01, 314.34, 172.02)">y</text><text class="cls-1" transform="translate(37.3 178.22) rotate(77.41)">P</text><text class="cls-1" transform="matrix(0.41, 0.91, -0.91, 0.41, 43.6, 204.87)">a</text><text class="cls-1" transform="translate(56.12 230.94) rotate(55.01)">t</text><text class="cls-1" transform="translate(69.19 249.44) rotate(44.56)">c</text><text class="cls-1" transform="translate(90.21 269.62) rotate(32.16)">h</text><text class="cls-1" transform="translate(117.25 285.88) rotate(19.52)">e</text><text class="cls-1" transform="translate(145.24 295.28) rotate(7.31)">s</text><text class="cls-1" transform="matrix(0.27, -0.96, 0.96, 0.27, 67.43, 141.83)">C</text><text class="cls-1" transform="translate(73.35 119.73) rotate(-62.41)">a</text><text class="cls-1" transform="translate(82.99 98.71) rotate(-46.8)">m</text><text class="cls-1" transform="matrix(0.83, -0.56, 0.56, 0.83, 108.95, 72.82)">i</text><text class="cls-1" transform="translate(118.71 65.47) rotate(-24.35)">n</text><text class="cls-1" transform="matrix(0.98, -0.2, 0.2, 0.98, 141.01, 55.2)">o</text></g></svg>