<?xml version="1.0" standalone="no"?>
<!DOCTYPE svg PUBLIC "-//W3C//DTD SVG 20010904//EN"
 "http://www.w3.org/TR/2001/REC-SVG-20010904/DTD/svg10.dtd">
<svg version="1.0" xmlns="http://www.w3.org/2000/svg"
 width="170.000000pt" height="170.000000pt" viewBox="0 0 170.000000 170.000000"
 preserveAspectRatio="xMidYMid meet">
<metadata>
Created by potrace 1.11, written by Peter Selinger 2001-2013
</metadata>
<g transform="translate(0.000000,170.000000) scale(0.100000,-0.100000)"
fill="#000000" stroke="none">
<path d="M707 1680 c-175 -32 -332 -114 -458 -239 -75 -76 -117 -134 -165
-231 -58 -119 -78 -207 -79 -355 0 -71 3 -148 7 -170 23 -130 116 -325 186
-388 19 -17 20 -17 25 5 2 13 19 70 37 128 17 58 33 112 35 120 5 20 107 354
109 357 2 2 31 -92 66 -209 35 -116 73 -243 86 -282 l22 -71 11 40 c39 143 79
267 83 259 6 -9 118 -368 123 -394 2 -8 4 -16 5 -17 3 -4 7 -21 10 -40 3 -30
31 40 54 137 9 36 59 190 61 190 2 0 17 -46 34 -102 18 -57 39 -128 48 -158
10 -30 18 -58 19 -62 1 -5 3 -10 4 -13 1 -3 3 -8 4 -12 1 -5 12 -41 24 -81 26
-83 19 -81 127 -34 255 110 432 327 501 613 14 56 12 276 -3 344 -33 156 -110
299 -223 415 -113 116 -241 192 -400 236 -65 18 -284 27 -353 14z m285 -103
c29 -22 32 -60 7 -91 -18 -23 -27 -27 -52 -22 -56 11 -73 62 -35 103 24 25 54
29 80 10z m-436 -88 c28 -31 28 -62 0 -88 -31 -29 -78 -22 -95 15 -15 34 -14
44 9 69 26 27 63 29 86 4z m831 -111 c28 -27 29 -48 2 -82 -25 -32 -55 -33
-86 -4 -28 27 -29 48 -2 82 25 32 55 33 86 4z m-213 -117 c173 -85 241 -284
156 -457 -36 -73 -91 -127 -169 -162 -80 -37 -193 -38 -272 0 -79 36 -133 89
-171 166 -60 122 -40 271 52 375 98 112 268 145 404 78z m-907 -63 c36 -39 18
-94 -32 -103 -59 -10 -95 58 -53 102 27 29 59 29 85 1z m1315 -201 c21 -31 20
-59 -3 -83 -28 -30 -56 -31 -86 -2 -29 27 -29 55 -1 86 18 18 29 22 52 18 17
-4 34 -12 38 -19z m-1383 -231 c28 -30 24 -63 -10 -88 -32 -24 -71 -16 -89 17
-35 66 48 125 99 71z m1343 -176 c25 -31 23 -55 -8 -79 -35 -27 -55 -26 -83 3
-18 19 -22 31 -17 52 14 54 73 67 108 24z m-265 -282 c28 -27 29 -48 2 -82
-25 -32 -55 -33 -86 -4 -30 28 -29 62 3 87 34 27 52 26 81 -1z"/>
<path d="M913 1240 c-111 -44 -193 -164 -193 -280 0 -274 328 -413 520 -220
149 148 103 408 -87 492 -70 31 -173 34 -240 8z"/>
<path d="M327 525 l-78 -258 33 -34 c41 -43 190 -143 212 -143 3 0 18 43 35
96 l29 95 -72 237 c-40 130 -75 243 -77 251 -3 8 -40 -102 -82 -244z"/>
<path d="M663 500 c-6 -14 -23 -69 -38 -123 l-28 -98 39 -126 c26 -82 44 -127
54 -128 8 -2 30 -5 47 -8 32 -5 33 -4 47 44 15 49 15 51 -35 217 -83 273 -75
251 -86 222z"/>
<path d="M900 318 c-12 -40 -31 -103 -42 -140 -19 -65 -19 -82 4 -141 l11 -29
71 7 c39 4 76 10 82 14 8 4 -5 59 -41 179 -29 95 -55 176 -58 179 -3 3 -15
-28 -27 -69z"/>
<path d="M555 144 c-10 -37 -14 -69 -9 -73 11 -10 76 -32 80 -28 4 4 -45 167
-50 167 -2 0 -11 -30 -21 -66z"/>
<path d="M810 20 c0 -5 5 -10 10 -10 6 0 10 5 10 10 0 6 -4 10 -10 10 -5 0
-10 -4 -10 -10z"/>
</g>
</svg>
